<?xml version="1.0" encoding="UTF-8" standalone="no"?>
<!-- Created with Inkscape (http://www.inkscape.org/) -->

<svg
   width="210mm"
   height="297mm"
   viewBox="0 0 210 297"
   version="1.1"
   id="svg1"
   xmlns:inkscape="http://www.inkscape.org/namespaces/inkscape"
   xmlns:sodipodi="http://sodipodi.sourceforge.net/DTD/sodipodi-0.dtd"
   xmlns="http://www.w3.org/2000/svg"
   xmlns:svg="http://www.w3.org/2000/svg">
  <sodipodi:namedview
     id="namedview1"
     pagecolor="#ffffff"
     bordercolor="#000000"
     borderopacity="0.25"
     inkscape:showpageshadow="2"
     inkscape:pageopacity="0.0"
     inkscape:pagecheckerboard="0"
     inkscape:deskcolor="#d1d1d1"
     inkscape:document-units="mm" />
  <defs
     id="defs1" />
  <g
     inkscape:label="Layer 1"
     inkscape:groupmode="layer"
     id="layer1">
    <path
       style="fill:#008000;stroke-width:0.329546"
       d="m 99.142069,87.422155 c -4.0318,-3.390018 -6.82225,-7.982769 -10.78138,-11.470778 -2.6243,-2.312027 -8.94769,-6.48033 -12.41948,-7.593724 -1.92493,-0.6173 -4.41646,-1.033826 -6.41164,-1.356052 -3.5812,-0.578379 -5.43544,-1.36826 -8.742881,0.563962 -2.040154,1.191862 -4.032059,3.190033 -5.90223,4.668536 -3.09926,2.450184 -6.34047,5.301081 -8.891608,8.343299 -7.499369,8.942971 -11.266072,21.997062 -13.304877,32.769792 -0.680241,3.59431 -0.92799,7.47217 -1.384031,11.0251 -1.815673,14.14558 -2.179416,26.76152 1.234912,40.07091 1.437358,5.60297 3.181033,10.78615 6.829768,15.10254 0.811596,0.9601 1.725327,2.88876 3.268333,2.80873 4.283532,-0.22214 10.419402,-6.07071 13.715778,-8.68961 11.902556,-9.45635 23.384286,-23.61484 29.334506,-37.42206 1.42839,-3.3145 2.29476,-6.78525 3.52383,-10.1492 0.97491,-2.66835 2.53773,-5.25325 3.15093,-7.99432 0.81941,-3.66291 2.08976,-7.25788 2.87304,-10.91488 0.48531,-2.2658 1.329831,-3.50266 2.080141,-7.492074"
       id="path1"
       inkscape:label="path1"
       sodipodi:nodetypes="cssssssssssssssssc" />
    <path
       style="fill:#008000;stroke-width:0.329546"
       d="m 99.048379,87.493105 c 4.031791,-3.39002 6.473811,-7.318901 10.052931,-11.195859 2.6713,-2.893587 8.94769,-6.480326 12.41948,-7.59372 1.92493,-0.6173 4.41646,-1.033826 6.41164,-1.356052 3.58121,-0.578379 5.43545,-1.36826 8.74289,0.563962 2.04016,1.191862 4.03206,3.190033 5.90223,4.668536 3.09926,2.450184 6.34047,5.301084 8.89161,8.343304 7.49937,8.94297 11.26607,21.997064 13.30488,32.769794 0.68024,3.59431 0.92799,7.47217 1.38403,11.0251 1.81567,14.14558 2.17941,26.76152 -1.23491,40.07091 -1.43736,5.60297 -3.18104,10.78615 -6.82977,15.10254 -0.8116,0.9601 -1.72533,2.88876 -3.26833,2.80873 -4.28354,-0.22214 -10.41941,-6.07071 -13.71578,-8.68961 -11.90256,-9.45635 -23.3843,-23.61484 -29.33452,-37.42206 -1.42839,-3.3145 -2.29476,-6.78525 -3.52383,-10.1492 -0.97491,-2.66835 -2.53773,-5.25325 -3.15093,-7.99432 -0.81941,-3.66291 -2.08976,-7.25788 -2.87304,-10.91488 -0.48531,-2.2658 -1.06846,-3.31017 -1.3282,-5.58877 -0.47776,-2.399676 -1.103811,-4.402817 -0.85433,-4.485337"
       id="path1-9"
       inkscape:label="path4"
       sodipodi:nodetypes="csssssssssssssssscc" />
    <path
       style="fill:#808000;stroke-width:0.264583"
       d="m 97.658857,86.259034 c -1.446776,0.160015 -0.950464,3.34265 0.798937,3.785454 1.493395,0.378005 2.455476,0.130173 3.031266,-1.374605 0.0781,-0.204005 0.18717,-1.055783 0.1175,-1.290016 -0.38135,-1.281948 -1.668713,-1.142286 -2.490816,-1.882156"
       id="path2"
       sodipodi:nodetypes="csccc"
       inkscape:label="path3" />
  </g>
</svg>
